<svg width="15" height="15" viewBox="0 0 15 15" fill="none" xmlns="http://www.w3.org/2000/svg">
<path fill-rule="evenodd" clip-rule="evenodd" d="M7.5 0C5.27875 0 3.28303 0.965627 1.90973 2.5C0.722134 3.82689 0 5.57911 0 7.5C0 9.42089 0.722134 11.1731 1.90973 12.5C3.28303 14.0344 5.27875 15 7.5 15C9.51277 15 11.3404 14.2071 12.6875 12.9167C14.1126 11.5515 15 9.62936 15 7.5C15 5.48723 14.2071 3.65964 12.9167 2.31253C11.5515 0.887387 9.62936 0 7.5 0ZM7.5 3.33333C7.84518 3.33333 8.125 3.61316 8.125 3.95833V5.20833C8.125 5.55351 7.84518 5.83333 7.5 5.83333C7.15482 5.83333 6.875 5.55351 6.875 5.20833V3.95833C6.875 3.61316 7.15482 3.33333 7.5 3.33333ZM7.5 7.5C7.84518 7.5 8.125 7.77982 8.125 8.125L8.125 11.0417C8.125 11.3868 7.84518 11.6667 7.5 11.6667C7.15482 11.6667 6.875 11.3868 6.875 11.0417L6.875 8.125C6.875 7.77982 7.15482 7.5 7.5 7.5Z" fill="#9ABCFF"/>
</svg>
